<svg width="366" height="343" viewBox="0 0 366 343" fill="none" xmlns="http://www.w3.org/2000/svg">
<path d="M209.436 213.159L341.615 97.7504L200.74 110.823L209.436 213.159Z" fill="#FFB6EA"/>
<path d="M94.1879 190.665L151.309 138.612L129.764 101.905L108.219 65.1986L102.167 119.322L94.1879 190.665Z" fill="#FFB6EA"/>
<path d="M100.919 64.1671L80.7026 76.2803L57.2663 90.3226L77.2015 93.7456L97.1366 97.1686L100.919 64.1671Z" fill="#FFB6EA"/>
<path d="M99.9903 195.511L208.393 287.592L193.304 111.072L99.9903 195.511Z" fill="#FFB6EA"/>
<path d="M211.831 240.515L216.239 294.708L272.865 342.985L211.831 240.515Z" fill="#FFB6EA"/>
<path d="M118.747 83.4158L120.903 166.343L151.251 138.572L118.747 83.4158Z" fill="#FD7BCD"/>
<path d="M196.399 148.173L193.248 111.077L100.005 195.674L121.994 213.691L196.399 148.173Z" fill="#FD7BCD"/>
<path d="M124.894 172.886L205.303 252.217L208.399 287.633L100.017 195.54L124.894 172.886Z" fill="#FB44B8"/>
<path d="M80.4598 76.4082L76.9556 93.6875L57.1367 90.3169L80.4598 76.4082Z" fill="#FD7BCD"/>
<path d="M99.0994 146.705L120.938 166.245L94.1261 190.768L99.0994 146.705Z" fill="#FFBFE7"/>
<path d="M205.446 165.841L275.578 103.828L200.695 110.838L205.446 165.841Z" fill="#FB44B8"/>
<path d="M227.974 304.59L255.767 314.144L272.759 342.861L227.974 304.59Z" fill="#FFBFE7"/>
</svg>
