<svg xmlns="http://www.w3.org/2000/svg" viewBox="0 0 1400 900" width="1400" height="900">
  <g fill="none" stroke="#52525b" stroke-width="1.2" opacity="0.35" stroke-linecap="round" stroke-linejoin="round">
    <!-- Pagoda Tower on Left -->
    <path d="M 120 750 L 260 750 L 250 700 L 130 700 Z" />
    <line x1="140" y1="750" x2="140" y2="700" />
    <line x1="190" y1="750" x2="190" y2="700" />
    <line x1="240" y1="750" x2="240" y2="700" />
    
    <path d="M 90 700 Q 190 675 290 700 L 270 630 L 110 630 Z" />
    <line x1="145" y1="695" x2="145" y2="630" />
    <line x1="190" y1="690" x2="190" y2="630" />
    <line x1="235" y1="695" x2="235" y2="630" />

    <path d="M 110 630 Q 190 608 270 630 L 252 565 L 128 565 Z" />
    <line x1="155" y1="625" x2="155" y2="565" />
    <line x1="190" y1="620" x2="190" y2="565" />
    <line x1="225" y1="625" x2="225" y2="565" />

    <path d="M 125 565 Q 190 545 255 565 L 238 505 L 142 505 Z" />
    <line x1="165" y1="560" x2="165" y2="505" />
    <line x1="190" y1="556" x2="190" y2="505" />
    <line x1="215" y1="560" x2="215" y2="505" />

    <path d="M 138 505 Q 190 488 242 505 L 226 450 L 154 450 Z" />
    <line x1="172" y1="500" x2="172" y2="450" />
    <line x1="190" y1="497" x2="190" y2="450" />
    <line x1="208" y1="500" x2="208" y2="450" />

    <path d="M 148 450 Q 190 435 232 450 L 190 380 Z" />
    <line x1="190" y1="380" x2="190" y2="310" />
    <circle cx="190" cy="310" r="4" />
    <circle cx="190" cy="328" r="6" />
    <circle cx="190" cy="348" r="8" />

    <!-- Arch Bridge in Center-Right -->
    <path d="M 220 780 Q 750 490 1280 780" stroke-width="1.8" />
    <path d="M 280 780 Q 750 550 1220 780" stroke-width="1.5" />
    
    <line x1="340" y1="758" x2="340" y2="778" />
    <line x1="400" y1="732" x2="400" y2="762" />
    <line x1="460" y1="708" x2="460" y2="745" />
    <line x1="520" y1="688" x2="520" y2="730" />
    <line x1="580" y1="672" x2="580" y2="718" />
    <line x1="640" y1="660" x2="640" y2="710" />
    <line x1="700" y1="652" x2="700" y2="706" />
    <line x1="750" y1="650" x2="750" y2="705" />
    <line x1="800" y1="652" x2="800" y2="706" />
    <line x1="860" y1="660" x2="860" y2="710" />
    <line x1="920" y1="672" x2="920" y2="718" />
    <line x1="980" y1="688" x2="980" y2="730" />
    <line x1="1040" y1="708" x2="1040" y2="745" />
    <line x1="1100" y1="732" x2="1100" y2="762" />
    <line x1="1160" y1="758" x2="1160" y2="778" />

    <!-- Water Lines -->
    <path d="M 400 810 Q 500 802 600 810 Q 700 818 800 810" />
    <path d="M 650 830 Q 750 822 850 830 Q 950 838 1050 830" />
    <path d="M 300 840 Q 400 835 500 840 Q 600 845 700 840" />

    <!-- Distant Mountains Silhouette -->
    <path d="M 40 780 Q 220 640 450 720 Q 680 610 920 700 Q 1150 580 1380 780" stroke-dasharray="3 3" opacity="0.4" />
  </g>
</svg>
